<svg width="11" height="15" viewBox="0 0 11 15" fill="none" xmlns="http://www.w3.org/2000/svg">
<path d="M9.48804 14.3642L10.6989 12.0865C10.8377 11.8484 10.7727 11.5308 10.5472 11.3452L8.2328 9.52407C8.02437 9.36814 7.74881 9.36937 7.53535 9.51234L5.98653 10.6236C4.4375 9.3078 3.33751 7.43673 2.96165 5.38438L4.69846 4.5987C4.92901 4.48533 5.06785 4.2473 5.03702 3.98883L4.61705 1.07394C4.56914 0.785866 4.32027 0.594078 4.05097 0.57196L1.47296 0.481692C1.1974 0.482919 0.977691 0.649237 0.902628 0.929377C-0.698721 6.90569 2.83259 13.0563 8.83225 14.6639C9.08905 14.7327 9.3492 14.6022 9.48804 14.3642Z" fill="white"/>
</svg>
